<svg width="32" height="32" viewBox="0 0 32 32" fill="none" xmlns="http://www.w3.org/2000/svg">
<g id="Icon/favourite">
<path id="Shape" d="M14.734 25.5277L14.7326 25.5264C11.2788 22.4543 8.49422 19.9751 6.561 17.6566C4.63864 15.3511 3.66797 13.3306 3.66797 11.1935C3.66797 7.73548 6.42868 5 10.0013 5C12.0256 5 13.9788 5.92922 15.2462 7.38907L16.0013 8.25893L16.7564 7.38907C18.0238 5.92922 19.977 5 22.0013 5C25.5739 5 28.3346 7.73548 28.3346 11.1935C28.3346 13.3306 27.364 15.3512 25.4414 17.6585C23.5082 19.9786 20.7238 22.4607 17.2704 25.5391C17.27 25.5395 17.2696 25.5398 17.2692 25.5402L16.0038 26.6616L14.734 25.5277Z" stroke="white" stroke-width="2"/>
</g>
</svg>
