<svg width="28" height="24" viewBox="0 0 28 24" fill="none" xmlns="http://www.w3.org/2000/svg">
<path id="Shape" d="M12.7327 21.5277L12.7312 21.5264C9.27749 18.4543 6.49288 15.9751 4.55966 13.6566C2.63729 11.3511 1.66663 9.33057 1.66663 7.19346C1.66663 3.73548 4.42734 1 7.99996 1C10.0243 1 11.9775 1.92922 13.2448 3.38907L14 4.25893L14.7551 3.38907C16.0224 1.92922 17.9756 1 20 1C23.5726 1 26.3333 3.73548 26.3333 7.19346C26.3333 9.33058 25.3626 11.3512 23.44 13.6585C21.5068 15.9786 18.7225 18.4607 15.2691 21.5391C15.2687 21.5395 15.2683 21.5398 15.2679 21.5402L14.0025 22.6616L12.7327 21.5277Z" stroke="#2BD9A8" stroke-width="2"/>
</svg>
