<svg width="32" height="32" viewBox="0 0 32 32" fill="none" xmlns="http://www.w3.org/2000/svg">
<path d="M11.3335 23.7077V10.6184C11.3335 10.065 11.6748 9.56904 12.1922 9.37304L23.5255 5.05571C24.3988 4.72238 25.3335 5.36771 25.3335 6.30104V21.033" stroke="white" stroke-width="1.5" stroke-linecap="round" stroke-linejoin="round"/>
<path d="M24.3569 18.6755C25.6586 19.9773 25.6586 22.0878 24.3569 23.3896C23.0551 24.6913 20.9446 24.6913 19.6428 23.3896C18.3411 22.0878 18.3411 19.9773 19.6428 18.6755C20.9446 17.3738 23.0551 17.3738 24.3569 18.6755" stroke="white" stroke-width="1.5" stroke-linecap="round" stroke-linejoin="round"/>
<path d="M10.3569 21.3435C11.6586 22.6452 11.6586 24.7558 10.3569 26.0575C9.05511 27.3593 6.94456 27.3593 5.64281 26.0575C4.34107 24.7558 4.34107 22.6452 5.64281 21.3435C6.94456 20.0418 9.05511 20.0418 10.3569 21.3435" stroke="white" stroke-width="1.5" stroke-linecap="round" stroke-linejoin="round"/>
</svg>
