<svg width="32" height="32" viewBox="0 0 32 32" fill="none" xmlns="http://www.w3.org/2000/svg">
<path fill-rule="evenodd" clip-rule="evenodd" d="M15.6249 7.04034C16.2548 6.41037 17.332 6.85654 17.332 7.74745L17.332 24.2524C17.332 25.1433 16.2548 25.5894 15.6249 24.9595L10.6653 19.9999H4.99862C4.44634 19.9999 3.99863 19.5522 3.99863 18.9999V12.9999C3.99863 12.4476 4.44634 11.9999 4.99863 11.9999L10.6653 11.9999L15.6249 7.04034Z" stroke="white" stroke-linecap="round" stroke-linejoin="round"/>
<path d="M18.668 17.3346C19.3408 16.6618 19.3408 15.3408 18.668 14.668" stroke="white" stroke-linecap="round"/>
<path d="M21.332 21.3346C24.1131 18.5535 24.1131 13.4491 21.332 10.668" stroke="white" stroke-linecap="round"/>
<path d="M24 25.3346C29.314 20.0206 29.3436 12.0115 24 6.66797" stroke="white" stroke-linecap="round"/>
</svg>
